<svg xmlns="http://www.w3.org/2000/svg" viewBox="0 0 800 450" font-family="-apple-system, BlinkMacSystemFont, 'Segoe UI', Roboto, Helvetica, Arial, sans-serif">
  <defs>
    <linearGradient id="bg" x1="0" y1="0" x2="1" y2="1"><stop offset="0" stop-color="#0f172a"/><stop offset="1" stop-color="#1e3a8a"/></linearGradient>
    <marker id="a" viewBox="0 0 10 10" refX="9" refY="5" markerWidth="7" markerHeight="7" orient="auto"><path d="M0,0 L10,5 L0,10 z" fill="#93c5fd"/></marker>
  </defs>
  <rect width="800" height="450" fill="url(#bg)"/>
  <g font-size="20" font-weight="700" fill="#e2e8f0">
    <rect x="50" y="70" width="230" height="70" rx="14" fill="#1e293b" stroke="#475569" stroke-width="2"/>
    <text x="165" y="100" text-anchor="middle">Gemma 4</text>
    <text x="165" y="126" text-anchor="middle" font-size="14" font-weight="400" fill="#94a3b8">local · triage</text>
    <rect x="50" y="190" width="230" height="70" rx="14" fill="#1e293b" stroke="#475569" stroke-width="2"/>
    <text x="165" y="220" text-anchor="middle">Qwen3.5-122B</text>
    <text x="165" y="246" text-anchor="middle" font-size="14" font-weight="400" fill="#94a3b8">local · verdict</text>
    <rect x="50" y="310" width="230" height="70" rx="14" fill="#1e293b" stroke="#475569" stroke-width="2"/>
    <text x="165" y="340" text-anchor="middle">GPT-5.5</text>
    <text x="165" y="366" text-anchor="middle" font-size="14" font-weight="400" fill="#94a3b8">API · chairman</text>
  </g>
  <g stroke="#93c5fd" stroke-width="3" fill="none" marker-end="url(#a)">
    <path d="M280,105 C340,105 340,225 396,225"/>
    <path d="M280,225 L396,225"/>
    <path d="M280,345 C340,345 340,225 396,225"/>
  </g>
  <polygon points="470,150 540,190 540,260 470,300 400,260 400,190" fill="#3b82f6" stroke="#bfdbfe" stroke-width="3"/>
  <text x="470" y="219" text-anchor="middle" font-size="19" font-weight="800" fill="#ffffff">LLM</text>
  <text x="470" y="245" text-anchor="middle" font-size="19" font-weight="800" fill="#ffffff">COUNCIL</text>
  <line x1="542" y1="225" x2="600" y2="225" stroke="#93c5fd" stroke-width="3" marker-end="url(#a)"/>
  <rect x="604" y="165" width="160" height="120" rx="14" fill="#0b1220" stroke="#60a5fa" stroke-width="2"/>
  <text x="684" y="200" text-anchor="middle" font-size="16" font-weight="700" fill="#e2e8f0">Morning Brief</text>
  <text x="684" y="226" text-anchor="middle" font-size="13" fill="#94a3b8">every trading day</text>
  <text x="684" y="248" text-anchor="middle" font-size="13" fill="#94a3b8">email · Telegram · calendar</text>
  <text x="684" y="270" text-anchor="middle" font-size="13" fill="#60a5fa">8:00 AM ET</text>
  <text x="400" y="425" text-anchor="middle" font-size="14" fill="#94a3b8">autonomous market research · runs on an Apple-silicon home server via Ollama + OpenClaw</text>
</svg>
